<svg xmlns="http://www.w3.org/2000/svg" viewBox="0 0 500 500">
    <g id="freepik--Character--inject-378">
        <path d="M332.21,433.79l-.86,22.57S354,464.82,354.26,469l-43.84-.09-.1-35.23Z"
            style="fill:#263238"></path>
        <path
            d="M317.8,454.43a1.79,1.79,0,0,0-1.24,2,1.71,1.71,0,0,0,2,1.25,1.88,1.88,0,0,0,1.3-2.16,1.79,1.79,0,0,0-2.23-1.07"
            style="fill:#e0e0e0"></path>
        <path d="M310.42,468.91l.13-3.55,42,1.42s2,.85,1.73,2.22Z" style="fill:#455a64"></path>
        <path
            d="M332.06,456.14c0,.21-1.08.31-2.13,1s-1.62,1.58-1.82,1.49.13-1.32,1.42-2.12S332.11,455.94,332.06,456.14Z"
            style="fill:#fff"></path>
        <path
            d="M336.65,458.05c.05.21-.87.57-1.6,1.47s-.94,1.87-1.16,1.86-.34-1.22.58-2.33S336.65,457.85,336.65,458.05Z"
            style="fill:#fff"></path>
        <path
            d="M339.25,463.56c-.19,0-.49-1,.07-2.2s1.55-1.63,1.64-1.45-.53.8-1,1.77S339.47,463.54,339.25,463.56Z"
            style="fill:#fff"></path>
        <path
            d="M331.69,451c-.09.2-1.08-.1-2.29,0s-2.15.46-2.26.28.8-1,2.22-1S331.79,450.81,331.69,451Z"
            style="fill:#fff"></path>
        <path
            d="M278.55,430.71,276.18,458,280.51,480a2.8,2.8,0,0,1-2.4,3.32h0a2.78,2.78,0,0,1-2.41-.88c-3.9-4.26-18.2-20-17.91-22,.33-2.3.6-28.89.6-28.89Z"
            style="fill:#263238"></path>
        <path
            d="M278.11,483.34l-20.2-24.7-.08,1.16a4.27,4.27,0,0,0,.82,2.79c1.61,2.14,6.16,8,17,19.87a2.81,2.81,0,0,0,2.49.88Z"
            style="fill:#455a64"></path>
        <g style="opacity:0.6000000000000001">
            <path
                d="M264.07,450.2a1.7,1.7,0,0,1,.32,2.24,1.64,1.64,0,0,1-2.22.34,1.8,1.8,0,0,1-.32-2.38,1.69,1.69,0,0,1,2.34-.09"
                style="fill:#fff"></path>
        </g>
        <path
            d="M272.64,471a8.66,8.66,0,0,1,2.53-2,8.26,8.26,0,0,1,3.18-.4c0-.07-.31-.3-.94-.43a4.44,4.44,0,0,0-4.41,1.83C272.64,470.6,272.58,471,272.64,471Z"
            style="fill:#fff"></path>
        <path
            d="M274.35,474.8a24.44,24.44,0,0,1,2.49-1,24.83,24.83,0,0,1,2.69-.17,3.12,3.12,0,0,0-2.82-.41C275.07,473.57,274.21,474.72,274.35,474.8Z"
            style="fill:#fff"></path>
        <path
            d="M269.33,466.11c.11.14,1.54-1.15,3.73-1.83s4.09-.5,4.11-.68-1.95-.66-4.29.11A6.18,6.18,0,0,0,269.33,466.11Z"
            style="fill:#fff"></path>
        <path d="M269.36,457.77c.06.17,1.6-.36,3.57-.31s3.49.63,3.56.46a6.95,6.95,0,0,0-7.13-.15Z"
            style="fill:#fff"></path>
        <path
            d="M269.85,449.76a13.43,13.43,0,0,1,3.71-.42c2.07.18,3.46,1.29,3.56,1.14s-.23-.42-.83-.82a6.06,6.06,0,0,0-2.67-.92,5.93,5.93,0,0,0-2.79.38C270.15,449.4,269.81,449.7,269.85,449.76Z"
            style="fill:#fff"></path>
        <path
            d="M273.61,447.81a2.28,2.28,0,0,0,.11-1,7.2,7.2,0,0,0-.65-2.75,3.18,3.18,0,0,0-1.27-1.61,1.14,1.14,0,0,0-1.28.17,1.86,1.86,0,0,0-.51,1.21,4,4,0,0,0,3.23,3.87,4.59,4.59,0,0,0,4.65-2.1,1.59,1.59,0,0,0,.16-1.32,1.1,1.1,0,0,0-1.11-.66,3.9,3.9,0,0,0-1.86.82,7.93,7.93,0,0,0-2,2,2.46,2.46,0,0,0-.48.91,13,13,0,0,1,2.72-2.56,3.54,3.54,0,0,1,1.63-.67.58.58,0,0,1,.61.35,1.11,1.11,0,0,1-.15.86,4.1,4.1,0,0,1-4.06,1.78,3.44,3.44,0,0,1-2.79-3.25,1.33,1.33,0,0,1,.32-.85.6.6,0,0,1,.71-.11,2.9,2.9,0,0,1,1.1,1.34A10.46,10.46,0,0,1,273.61,447.81Z"
            style="fill:#fff"></path>
        <path
            d="M353.32,243.47A96.76,96.76,0,0,1,355.44,272C355,278.08,334.5,445.9,334.5,445.9H306.86l7.77-157.73-2.26.49s-15.09,67.27-16.32,78.16c-1.1,9.79-13.83,80.92-13.83,80.92L257,448,265,354l9.39-90.27L278,237.41Z"
            style="fill:#263238"></path>
        <path
            d="M313.63,277.47s.05.08.18.19a1.82,1.82,0,0,0,.67.31,3.14,3.14,0,0,0,2.62-.62,5.13,5.13,0,0,0,1.79-3.57c.2-1.5.23-3.11.34-4.82.19-3.42.33-6.51.4-8.75a25.88,25.88,0,0,0,0-3.63,23.14,23.14,0,0,0-.39,3.61c-.17,2.24-.37,5.32-.56,8.74-.11,1.7-.13,3.35-.29,4.78a4.91,4.91,0,0,1-1.53,3.34,3.05,3.05,0,0,1-2.34.72A5,5,0,0,1,313.63,277.47Z"
            style="fill:#455a64"></path>
        <path
            d="M273,261.24a2.33,2.33,0,0,0,.77.28,12.63,12.63,0,0,0,2.21.37,15.91,15.91,0,0,0,13.3-5.34,13.78,13.78,0,0,0,1.34-1.8A2.68,2.68,0,0,0,291,254c-.08,0-.7.94-2,2.28a17,17,0,0,1-13,5.22C274.12,261.44,273,261.15,273,261.24Z"
            style="fill:#455a64"></path>
        <path
            d="M342.31,254.22a8.86,8.86,0,0,0,.42,2.77,20.71,20.71,0,0,0,7.4,11.14,9.19,9.19,0,0,0,2.4,1.47c.12-.15-3.69-2.32-6.57-6.72S342.49,254.16,342.31,254.22Z"
            style="fill:#455a64"></path>
        <polygon
            points="426.74 206.74 433.08 208.74 444.6 202.37 451.14 220.58 435.46 224.31 423.58 223 426.74 206.74"
            style="fill:#ae7461"></polygon>
        <path
            d="M353,133.64s6.48,3.89,11.85,17.11c10.54,26,17.17,40,17.17,40L430.38,206l-3.87,19.4s-49.06-6.84-55.63-9.3c-9-3.37-15.66-21.1-15.66-21.1Z"
            style="fill:#e0e0e0"></path>
        <path
            d="M339.66,75.39a5.11,5.11,0,0,0,1.66-10,5.31,5.31,0,0,0-5.08-8.71,6.36,6.36,0,0,0-9.84-4.72,7.16,7.16,0,0,0-8.8.27,5.08,5.08,0,0,0-4,8.84"
            style="fill:#263238"></path>
        <path
            d="M316.76,57.29l1.12,0a21.65,21.65,0,0,1,22.56,18.82c1.36,10.42,2.73,21.94,2.94,27.55.44,11.62-11.09,14-11.09,14l1.68,13.9-28.23.53-5-50.48C299.09,69.56,304.71,58.6,316.76,57.29Z"
            style="fill:#ae7461"></path>
        <path d="M332.39,117.6A28.24,28.24,0,0,1,317,113.9s4,8.18,15.53,6.56Z" style="fill:#6f4439"></path>
        <path
            d="M336.26,86.78a1.65,1.65,0,0,1-1.51,1.75A1.59,1.59,0,0,1,333,87.12a1.67,1.67,0,0,1,1.52-1.75A1.58,1.58,0,0,1,336.26,86.78Z"
            style="fill:#263238"></path>
        <path
            d="M338.23,81.87c-.2.23-1.5-.64-3.29-.55s-3,1.05-3.25.85.09-.5.64-.94a4.56,4.56,0,0,1,2.59-.94,4.41,4.41,0,0,1,2.63.7C338.12,81.39,338.32,81.77,338.23,81.87Z"
            style="fill:#263238"></path>
        <path
            d="M320,87.23A1.65,1.65,0,0,1,318.46,89a1.58,1.58,0,0,1-1.78-1.41,1.66,1.66,0,0,1,1.51-1.75A1.58,1.58,0,0,1,320,87.23Z"
            style="fill:#263238"></path>
        <path
            d="M320.7,83.08c-.2.22-1.5-.65-3.28-.55s-3.05,1-3.26.84.09-.49.64-.94a4.56,4.56,0,0,1,2.59-.94,4.38,4.38,0,0,1,2.63.71C320.59,82.59,320.79,83,320.7,83.08Z"
            style="fill:#263238"></path>
        <path
            d="M327.83,96a12,12,0,0,1,2.88-.67c.45-.07.88-.18.94-.49a2.39,2.39,0,0,0-.37-1.34c-.49-1.08-1-2.22-1.52-3.4-2.12-4.85-3.68-8.85-3.48-8.93s2.07,3.78,4.19,8.63c.51,1.19,1,2.33,1.46,3.42a2.64,2.64,0,0,1,.33,1.78,1.13,1.13,0,0,1-.72.7,3.06,3.06,0,0,1-.77.15A11.55,11.55,0,0,1,327.83,96Z"
            style="fill:#263238"></path>
        <path
            d="M321.91,76.13c-.22.47-1.77.05-3.66.08s-3.45.43-3.65,0c-.08-.22.23-.65.89-1a5.67,5.67,0,0,1,2.8-.74,5.46,5.46,0,0,1,2.76.7C321.7,75.49,322,75.91,321.91,76.13Z"
            style="fill:#263238"></path>
        <path
            d="M338,74.51c-.36.42-1.85.07-3.63.14s-3.25.44-3.62,0c-.16-.2.05-.62.69-1a5.72,5.72,0,0,1,2.91-.81,5.62,5.62,0,0,1,2.93.67C337.88,73.89,338.1,74.3,338,74.51Z"
            style="fill:#263238"></path>
        <path
            d="M339.06,70.79s-3.43-7.12-7-8.64c-4.35-1.84-5.94,2.91-10,2s-8.26-2.7-12.24.63c-4.35,3.65-2.11,5.94-2.14,11.11-.09,20.95-3.61,27.05-5.19,17.26-.17-1.07-3.21-1.78-3.88-6.31-.86-5.88-1.45-13-.34-17.3.94-3.59,2.83-6.13,6.31-9,5.49-4.53,13.32-5,18.67-4.74S339.09,61.66,339.06,70.79Z"
            style="fill:#263238"></path>
        <path
            d="M303.16,92.78a3.16,3.16,0,0,0-3.56-2.87c-2.16.31-4.5,1.66-4.14,6.13.65,7.93,8.47,5.64,8.47,5.42S303.46,96.09,303.16,92.78Z"
            style="fill:#ae7461"></path>
        <path
            d="M302,98.61s-.13.11-.35.24a1.41,1.41,0,0,1-1,.1c-.87-.24-1.68-1.51-1.84-2.93a4.56,4.56,0,0,1,.23-2,1.61,1.61,0,0,1,.95-1.15.72.72,0,0,1,.85.31c.12.22.08.38.13.39s.16-.15.07-.47a1,1,0,0,0-.36-.47,1,1,0,0,0-.78-.14,1.94,1.94,0,0,0-1.34,1.35,4.73,4.73,0,0,0-.3,2.25c.18,1.59,1.12,3,2.3,3.26a1.45,1.45,0,0,0,1.24-.32C302,98.81,302,98.63,302,98.61Z"
            style="fill:#6f4439"></path>
        <path
            d="M302.55,77.39A7.52,7.52,0,0,0,306,78.77a2.59,2.59,0,0,0,2.78-2c.07-.56-.1-1.19.24-1.64s1.22-.41,1.89-.37c2.32.13,4.89-2.56,5.36-4.83a2.08,2.08,0,0,0,2.8.43,7.41,7.41,0,0,0,1.83-1.79,3.28,3.28,0,0,1,2.66-1.5,7.63,7.63,0,0,0,1.74.29c1-.14,1.49-1.39,1.6-2.43s.17-2.26,1-2.86,1.87-.32,2.84-.22,2.19-.19,2.39-1.15a1.85,1.85,0,0,0-.43-1.42,5.15,5.15,0,0,0-6.16-1.64A7,7,0,0,0,313.67,57a7.09,7.09,0,0,0-11.18,3.14,5.14,5.14,0,0,0-5.41,7.75,4.85,4.85,0,0,0-2.48,4c0,1.64,1.73,3.2,3.3,2.69A2.84,2.84,0,0,0,303,77.14"
            style="fill:#263238"></path>
        <path
            d="M327.25,60s0,.05,0,.15,0,.24,0,.43a5.19,5.19,0,0,1-.5,1.55,5.69,5.69,0,0,1-1.67,2,5.27,5.27,0,0,1-3.21,1.09L322,65a2.9,2.9,0,0,1-.05,2.2,8.61,8.61,0,0,1-1.26,2,6.12,6.12,0,0,1-.85,1,2.72,2.72,0,0,1-1.23.53,2.9,2.9,0,0,1-2.6-.79l.29-.1A5.94,5.94,0,0,1,314,74.05a4.38,4.38,0,0,1-2.57,1,7.86,7.86,0,0,1-2.59-.43l.2-.11A6.23,6.23,0,0,1,307.25,77a3.35,3.35,0,0,1-2.73.89A4.38,4.38,0,0,1,301,74.67l.18.08a4.06,4.06,0,0,1-2.7.53,4.42,4.42,0,0,1-1.95-.75,3.9,3.9,0,0,1-.94-.93,1.62,1.62,0,0,1-.22-.4,4.9,4.9,0,0,0,1.24,1.22,4.25,4.25,0,0,0,1.89.67,3.85,3.85,0,0,0,2.55-.55l.15-.09,0,.17a4.13,4.13,0,0,0,3.34,3,3,3,0,0,0,2.48-.84,6,6,0,0,0,1.65-2.41l.05-.15.16,0a7.43,7.43,0,0,0,2.48.42,4,4,0,0,0,2.37-.92,5.6,5.6,0,0,0,2.19-4l0-.37.27.27a2.56,2.56,0,0,0,2.29.7,2.46,2.46,0,0,0,1.1-.46,5.78,5.78,0,0,0,.79-.9,7.88,7.88,0,0,0,1.24-1.93,2.56,2.56,0,0,0,.07-2l-.07-.19h.2a5.08,5.08,0,0,0,3.08-1A5.66,5.66,0,0,0,326.6,62,6.12,6.12,0,0,0,327.25,60Z"
            style="fill:#455a64"></path>
        <path
            d="M327.75,102.12c-.06-.3-2,.21-3.8-1.08s-2.14-3.41-2.41-3.35-.26.55-.05,1.43a5,5,0,0,0,1.9,2.82,4.34,4.34,0,0,0,3.15.79C327.37,102.59,327.79,102.25,327.75,102.12Z"
            style="fill:#263238"></path>
        <path
            d="M374.88,175.54c-.18-.63-10.52-28.77-13.81-34.93-3.95-7.37-12.25-10.63-17.4-11s-60.25,4.08-60.25,4.08-16.46,3.68-18.56,17.84c-2.42,16.3-4.53,53.61-4.53,53.61l25.08-12.86,3.25-8.18,51.9,11.58L353.23,177Z"
            style="fill:#e0e0e0"></path>
        <path
            d="M279.78,135.34l21.52-9.49,2.41-9.28,25.13,11.88,5.26-5.82,2.21,6.56,5.5,1.8,12.87,22.63,0,48.22,2.6,41.6L354.45,250l-23.05,3.4a26.16,26.16,0,0,1-7.6,0L277,245.77,275.8,232l5-37.89Z"
            style="fill:#e0e0e0"></path>
        <path
            d="M303.71,116.57s2.81.81,10,4.66c7.07,3.77,15.1,7.22,15.1,7.22l-.61,11.34-26.74-13.42"
            style="fill:#e0e0e0"></path>
        <polyline points="334.1 122.63 328.84 128.45 331.65 140.61 336.34 129.62"
            style="fill:#e0e0e0"></polyline>
        <g style="opacity:0.30000000000000004">
            <path d="M328.94,129.7c.23.18,1.69,14,1.69,14l-26.8-16.2,24.4,12.25Z"></path>
        </g>
        <path
            d="M328.76,181.43c-.41-10.6,1.26-37.64,1.26-37.64l3.5-.57a395.73,395.73,0,0,1,9,58.51c1,13,1,28.15,1,28.15l-7,15.06-7.76-15S329.25,194.32,328.76,181.43Z"
            style="fill:#455a64"></path>
        <path
            d="M278.18,137c-.05.05.72.65,1.81,1.77a22.1,22.1,0,0,1,5.68,10.57c.33,1.52.41,2.49.47,2.48a2.11,2.11,0,0,0,0-.68,14.52,14.52,0,0,0-.23-1.85,19.57,19.57,0,0,0-2-5.81,19.79,19.79,0,0,0-3.72-4.9,13.16,13.16,0,0,0-1.42-1.2A3.08,3.08,0,0,0,278.18,137Z"
            style="fill:#263238"></path>
        <polygon
            points="328.76 133.87 331.15 132.94 333.42 136.83 333.83 143.22 330.63 143.74 328.23 139.79 328.76 133.87"
            style="fill:#455a64"></polygon>
        <path
            d="M354.64,152.89c-.1,0-.19,13.84-.19,30.9s.09,30.91.19,30.91.19-13.83.19-30.91S354.74,152.89,354.64,152.89Z"
            style="fill:#263238"></path>
        <path
            d="M328.59,128.35a26.77,26.77,0,0,0,1.36,2.31,64,64,0,0,1,3,5.7c.09.19.18.37.26.55l.17.36.17-.36a44.09,44.09,0,0,0,2.23-5.67c.23-.73.4-1.33.5-1.75a1.81,1.81,0,0,0,.12-.66c-.05,0-.33.89-.86,2.33a60.07,60.07,0,0,1-2.33,5.59h.34l-.26-.55a47.61,47.61,0,0,0-3.15-5.68c-.46-.69-.85-1.24-1.13-1.62S328.61,128.33,328.59,128.35Z"
            style="fill:#263238"></path>
        <path
            d="M301.3,125.85a1.93,1.93,0,0,0,.37.22l1.08.57,4,2.07c3.37,1.75,8,4.25,13.1,7,3.11,1.66,6.06,3.2,8.63,4.48l.24.12V140c0-3.33.06-6.13.08-8.16,0-1,0-1.72,0-2.3a5.72,5.72,0,0,0,0-.82,4.77,4.77,0,0,0-.07.82c0,.57-.05,1.34-.09,2.29-.05,2-.12,4.84-.21,8.16l.24-.14c-2.55-1.31-5.49-2.86-8.61-4.52-5.11-2.73-9.75-5.19-13.15-6.89-1.7-.84-3.09-1.51-4.05-2l-1.12-.5A1.53,1.53,0,0,0,301.3,125.85Z"
            style="fill:#263238"></path>
        <path
            d="M351.41,134.6c-.06,0,.36.74.91,2a22.59,22.59,0,0,1,1.53,4.93,22.25,22.25,0,0,1,.32,5.16c-.07,1.33-.21,2.14-.15,2.15a2,2,0,0,0,.17-.56,14.53,14.53,0,0,0,.24-1.57,18.57,18.57,0,0,0-1.88-10.22,11.09,11.09,0,0,0-.79-1.38C351.55,134.75,351.43,134.58,351.41,134.6Z"
            style="fill:#263238"></path>
        <path
            d="M331.22,144.15c0,.09.66-.2,1.35-.64s1.22-.86,1.16-.95a3.3,3.3,0,0,0-1.36.64C331.68,143.64,331.16,144.06,331.22,144.15Z"
            style="fill:#263238"></path>
        <path
            d="M330.07,142.59a18.1,18.1,0,0,0,1.62-3.24A18.79,18.79,0,0,0,333,136a16.72,16.72,0,0,0-1.63,3.23A17.38,17.38,0,0,0,330.07,142.59Z"
            style="fill:#263238"></path>
        <path
            d="M275.37,137.72s-8.29,6-9.33,9.27-5.44,56.89-6.22,63.27-1.56,18.29,3.37,22.18,15.55,6.81,15.55,6.81L288.55,219l-5.2-10.89,5.2-40.7Z"
            style="fill:#e0e0e0"></path>
        <path
            d="M276.37,238.53a2.72,2.72,0,0,1,.53,0,12.85,12.85,0,0,0,1.53-.1,11.14,11.14,0,0,0,5.3-1.92,14.45,14.45,0,0,0,5.06-6.92,31.45,31.45,0,0,0,1.92-10.91l.05.14-7.62-10.55-.06-.08,0-.1c0-.27.07-.57.11-.86,1.46-11.41,2.79-21.75,3.76-29.28.48-3.71.87-6.73,1.15-8.87.13-1,.23-1.82.31-2.42s.11-.84.12-.84a.48.48,0,0,1,0,.22c0,.14,0,.36,0,.63-.06.6-.13,1.41-.22,2.43-.21,2.1-.55,5.14-1,8.89-.88,7.51-2.15,17.87-3.61,29.31,0,.29-.07.58-.11.85l0-.18,7.59,10.56,0,.07v.07a31.73,31.73,0,0,1-2,11.07,14.69,14.69,0,0,1-5.28,7,10,10,0,0,1-3,1.39l-.68.19-.64.11a6.77,6.77,0,0,1-1.12.13,9,9,0,0,1-1.54,0A2.72,2.72,0,0,1,276.37,238.53Z"
            style="fill:#263238"></path>
        <path
            d="M266.35,211.84a8.44,8.44,0,0,1,2.18-1.55A20.34,20.34,0,0,1,281,207.86a8.69,8.69,0,0,1,2.6.62,24.9,24.9,0,0,0-17.29,3.36Z"
            style="fill:#263238"></path>
        <path
            d="M331.42,158.48h0s.48,1.78,1.23,4.92a22.36,22.36,0,0,1,6.4-6.12h0s12.8-12.72,16.89-26.09c3-9.71,2.23-20.47,2.23-20.47-.12-.51-1.12-5.07-1.93-8.8a5.83,5.83,0,0,1,4.22-6.88C366.79,93.33,384,90,388,101.54c5.89,17.25-3.64,35.88-3.53,41.21,0,1,0,1.83,0,2.49,5.05-1.17,9-2,9-1.92h0l33.14-7.73s10.95-3.32,14.71,7.91-9,15-9,15,6-.27,7.62,9.94-9.33,13.52-9.33,13.52,6.71-.43,8.45,8.62c1.69,8.81-9.26,14.12-9.85,14.4a23.11,23.11,0,0,1,2.64-.5,14.93,14.93,0,0,1-2,.58c5.11.65,5.85,6.73,5.85,6.73,3.29,12.47-6.31,15.09-6.31,15.09L368.85,241a34.82,34.82,0,0,1-18.24-.66c.58,2.58.89,4,.87,4h0l-42.27,9.87c-.09,0-4.65-19.19-10.19-42.89s-9.95-43-9.86-43Z"
            style="fill:#588AFD"></path>
        <g style="opacity:0.30000000000000004">
            <path
                d="M331.42,158.48h0s.48,1.78,1.23,4.92a22.36,22.36,0,0,1,6.4-6.12h0s12.8-12.72,16.89-26.09c3-9.71,2.23-20.47,2.23-20.47-.12-.51-1.12-5.07-1.93-8.8a5.83,5.83,0,0,1,4.22-6.88C366.79,93.33,384,90,388,101.54c5.89,17.25-3.64,35.88-3.53,41.21,0,1,0,1.83,0,2.49,5.05-1.17,9-2,9-1.92h0l33.14-7.73s10.95-3.32,14.71,7.91-9,15-9,15,6-.27,7.62,9.94-9.33,13.52-9.33,13.52,6.71-.43,8.45,8.62c1.69,8.81-9.26,14.12-9.85,14.4a23.11,23.11,0,0,1,2.64-.5,14.93,14.93,0,0,1-2,.58c5.11.65,5.85,6.73,5.85,6.73,3.29,12.47-6.31,15.09-6.31,15.09L368.85,241a34.82,34.82,0,0,1-18.24-.66c.58,2.58.89,4,.87,4h0l-42.27,9.87c-.09,0-4.65-19.19-10.19-42.89s-9.95-43-9.86-43Z"></path>
        </g>
        <path
            d="M339.59,170.52l-.82,5.5,13.52,57.85h0a34.82,34.82,0,0,0,27.19,4.9L440,224.64s9.6-2.62,6.31-15.09c0,0-.79-6.62-6.5-6.8,0,0,11.6-5.36,9.87-14.41s-8.44-8.61-8.44-8.61,10.95-3.32,9.32-13.53-7.62-9.94-7.62-9.94,12.75-3.73,9-15-14.71-7.91-14.71-7.91l-43,10-37.72,8.81A22.13,22.13,0,0,0,339.59,170.52Z"
            style="fill:#588AFD"></path>
        <path
            d="M349.65,155.09s12.8-12.72,16.89-26.09c3-9.71,2.23-20.46,2.23-20.46-.12-.52-1.12-5.08-1.93-8.81a5.83,5.83,0,0,1,4.22-6.88c6.36-1.72,17.83,1.44,21.78,13,5.89,17.24,2.11,29.37,2.21,34.7l.1,5.33Z"
            style="fill:#588AFD"></path>
        <rect x="309.25" y="160.06" width="43.4" height="88.18"
            transform="translate(-37.76 80.61) rotate(-13.15)" style="fill:#588AFD"></rect>
        <path
            d="M362.11,242.15c.09,0-4.32-19.26-9.86-43s-10.1-42.92-10.19-42.9,4.32,19.26,9.86,43S362,242.17,362.11,242.15Z"
            style="fill:#263238"></path>
        <path
            d="M319.85,252c.09,0-4.33-19.26-9.87-43s-10.1-42.92-10.19-42.9,4.32,19.26,9.86,43S319.75,252,319.85,252Z"
            style="fill:#263238"></path>
        <path d="M331.73,179.42a8.12,8.12,0,1,1-9.76-6.06A8.13,8.13,0,0,1,331.73,179.42Z"
            style="fill:#fff"></path>
        <path
            d="M404.08,141.12c0-.09-4.65.91-10.33,2.24s-10.28,2.47-10.26,2.56,4.65-.91,10.33-2.23S404.1,141.21,404.08,141.12Z"
            style="fill:#263238"></path>
        <path
            d="M442.18,179.93c0-.09-3,.53-6.62,1.37A64,64,0,0,0,429,183c0,.09,3-.53,6.62-1.37A67.23,67.23,0,0,0,442.18,179.93Z"
            style="fill:#263238"></path>
        <path
            d="M443.72,155.85c0-.09-4.22.82-9.38,2s-9.32,2.25-9.3,2.35,4.22-.82,9.38-2S443.74,156,443.72,155.85Z"
            style="fill:#263238"></path>
        <path
            d="M442.47,202.24c0-.09-4.22.81-9.38,2s-9.32,2.25-9.3,2.34,4.22-.81,9.38-2S442.49,202.33,442.47,202.24Z"
            style="fill:#263238"></path>
        <g style="opacity:0.30000000000000004">
            <path
                d="M371.42,97.1a5,5,0,0,0-1,5,32.32,32.32,0,0,0,2.31,4.87,18.29,18.29,0,0,1,1.42,11.63c-.25,1.19-.58,2.56.18,3.51,1.08,1.34,3.25.6,4.62-.45a17.29,17.29,0,0,0,6-17.47,12.16,12.16,0,0,0-4.26-6.87c-2.21-1.64-5.6-3.12-9.35-.25"
                style="fill:#fff"></path>
        </g>
        <g style="opacity:0.30000000000000004">
            <path
                d="M441.17,134.88a10.37,10.37,0,0,0-4.47.47l-25.54,6.48c-2.78.71-8,1.34-8.06,4.18h0c-.56,1.55.62,3.31,2.14,3.94a9,9,0,0,0,4.89.18c3.41-.54,6.78-1.34,10.15-2.14,6.76-1.62,13.54-3.28,20-6a9.31,9.31,0,0,0,2.68-1.51,3.47,3.47,0,0,0,1.27-2.71A3.57,3.57,0,0,0,441.17,134.88Z"
                style="fill:#fff"></path>
        </g>
        <path
            d="M332.66,161c0-.09-6,1.22-13.23,2.92s-13.17,3.15-13.15,3.24,5.94-1.21,13.23-2.91S332.68,161.14,332.66,161Z"
            style="fill:#fff"></path>
        <path
            d="M446.68,170.77a1.65,1.65,0,0,0,.16-.5,6.74,6.74,0,0,0,.22-1.42,10.5,10.5,0,0,0-.07-2.13,12.24,12.24,0,0,0-.68-2.53,11.64,11.64,0,0,0-1.26-2.3,10,10,0,0,0-1.42-1.6,7.35,7.35,0,0,0-1.14-.87,1.52,1.52,0,0,0-.46-.25c0,.06.59.46,1.44,1.3a10.93,10.93,0,0,1,1.32,1.6,12.45,12.45,0,0,1,1.2,2.24,13.41,13.41,0,0,1,.69,2.45,12.28,12.28,0,0,1,.14,2.08C446.79,170,446.61,170.75,446.68,170.77Z"
            style="fill:#fff"></path>
        <path
            d="M447.85,147.56a3.12,3.12,0,0,0,.8-1.14,6.53,6.53,0,0,0,.62-3.29,6.74,6.74,0,0,0-1-3.19,3.12,3.12,0,0,0-.94-1c-.05,0,.32.42.73,1.15a7.15,7.15,0,0,1,.91,3.08,7.27,7.27,0,0,1-.5,3.17C448.12,147.09,447.8,147.52,447.85,147.56Z"
            style="fill:#fff"></path>
        <path
            d="M444.66,195.77a3.42,3.42,0,0,0,1.13-1.12,5.77,5.77,0,0,0-.44-7.24,3.42,3.42,0,0,0-1.26-1s.48.39,1.08,1.13a6.18,6.18,0,0,1,1.34,3.41,6.11,6.11,0,0,1-.92,3.55C445.09,195.33,444.61,195.73,444.66,195.77Z"
            style="fill:#fff"></path>
        <path
            d="M440.82,218.17a3.54,3.54,0,0,0,.76-1.2,7.57,7.57,0,0,0-.29-6.71,3.53,3.53,0,0,0-.86-1.13c-.05,0,.28.46.65,1.24a8.56,8.56,0,0,1,.8,3.22,8.44,8.44,0,0,1-.52,3.28C441.06,217.68,440.77,218.14,440.82,218.17Z"
            style="fill:#fff"></path>
        <path
            d="M393.31,126.13a5.86,5.86,0,0,0,.25-1c.07-.31.15-.7.22-1.16s.16-1,.2-1.56a28.51,28.51,0,0,0,.15-4.08,31.23,31.23,0,0,0-1.89-9.81,29.22,29.22,0,0,0-1.67-3.73c-.26-.53-.54-1-.77-1.37s-.45-.73-.64-1a5,5,0,0,0-.6-.81,6.07,6.07,0,0,0,.49.88c.17.28.37.62.58,1s.49.86.73,1.39a34.07,34.07,0,0,1,1.58,3.73,37,37,0,0,1,1.31,4.78,38.1,38.1,0,0,1,.57,4.93,32.58,32.58,0,0,1-.08,4c0,.58-.1,1.1-.15,1.55s-.11.85-.16,1.17A4.91,4.91,0,0,0,393.31,126.13Z"
            style="fill:#fff"></path>
        <path
            d="M296.81,227.45s3.32-2.58,5.79-2.68,5.68.85,6.32.53,2.15-1.73,3.11-.54,2.15,5.47-3,6.65h-3.54s.43,3.54,1.29,4.93,12.87,16.51,12.87,16.51,1.5,1.51.75,3-4,.64-4,.64-2.25,2-4.82,1.07a17.85,17.85,0,0,1-3.65-1.71,4.77,4.77,0,0,1-5.79,0c-3-2.25-13-14.8-13-14.8l3.58-14Z"
            style="fill:#ae7461"></path>
        <path d="M286.39,219.15l10.42,8.3-7.65,13.61-15.26-5.54S274.34,219.44,286.39,219.15Z"
            style="fill:#ae7461"></path>
        <path d="M448.92,200.61s-.33-3.73-2.42-3-3,5.16-3,5.16Z" style="fill:#ae7461"></path>
        <path
            d="M441.45,204.29s3.63-4.06,8.67-3.73,1.87,4.61,1.87,4.61,3.74,2.3,1,5.6l-.44.88s3.18,1.2-.11,4.6a3.36,3.36,0,0,1-.44,3.85c-1.65,1.64-5.76-.55-5.76-.55s-3.79.88-4.12-.66A2.91,2.91,0,0,1,443,216c.33-.22,2.31-1,2.31-1s-4.39.55-4.5-.55-.55-2.31,2.74-3.4l1.76-.47s-4.56.14-4.59-1-.24-1.54,1.4-2.3a25.22,25.22,0,0,0,3-1.65S440.8,206.6,441.45,204.29Z"
            style="fill:#ae7461"></path>
        <path
            d="M440.65,208.58a18.6,18.6,0,0,1,5.43-2.78,18.92,18.92,0,0,1,6.08-.48,5,5,0,0,0-1.79-.38,12.36,12.36,0,0,0-8.4,2.37A4.66,4.66,0,0,0,440.65,208.58Z"
            style="fill:#6f4439"></path>
        <path
            d="M441.15,214.85s-.1-.14-.21-.39a1.75,1.75,0,0,1,0-1.14,2.59,2.59,0,0,1,1-1.38,5.77,5.77,0,0,1,2-.83,49.37,49.37,0,0,1,5.76-.7,5.39,5.39,0,0,0-1.72-.19,17.91,17.91,0,0,0-4.14.45,5.75,5.75,0,0,0-2.15.94,2.78,2.78,0,0,0-1.06,1.63,1.7,1.7,0,0,0,.15,1.3C441,214.81,441.14,214.87,441.15,214.85Z"
            style="fill:#6f4439"></path>
        <path
            d="M443,219.68s-.16-.1-.38-.31a1.85,1.85,0,0,1,.1-2.75,7.51,7.51,0,0,1,2.15-1,14.55,14.55,0,0,1,4.4-.23,5.15,5.15,0,0,0,1.87-.1,14,14,0,0,0-1.85-.22,12.23,12.23,0,0,0-4.55.12,7.39,7.39,0,0,0-2.29,1.11,2,2,0,0,0-.65,1,2.49,2.49,0,0,0,0,1,1.85,1.85,0,0,0,.75,1.21C442.8,219.7,443,219.7,443,219.68Z"
            style="fill:#6f4439"></path>
        <path
            d="M441.39,204.47s.09-.14.32-.35a12,12,0,0,1,1-.81,14.31,14.31,0,0,1,3.72-2,9.63,9.63,0,0,1,4.14-.6,16.23,16.23,0,0,1,1.69.48,3,3,0,0,0-1.63-.79,8.58,8.58,0,0,0-4.33.48C443,202.06,441.12,204.32,441.39,204.47Z"
            style="fill:#6f4439"></path>
    </g>
</svg>